<svg width="38" height="23" viewBox="0 0 38 23" fill="none" xmlns="http://www.w3.org/2000/svg">
<path d="M0.43934 9.98524C-0.146447 10.571 -0.146447 11.5208 0.43934 12.1066L9.98528 21.6525C10.5711 22.2383 11.5208 22.2383 12.1066 21.6525C12.6924 21.0667 12.6924 20.117 12.1066 19.5312L3.62132 11.0459L12.1066 2.56062C12.6924 1.97483 12.6924 1.02508 12.1066 0.439297C11.5208 -0.14649 10.5711 -0.14649 9.98528 0.439297L0.43934 9.98524ZM36.5 12.5459C37.3284 12.5459 38 11.8743 38 11.0459C38 10.2175 37.3284 9.5459 36.5 9.5459V11.0459V12.5459ZM1.5 11.0459L1.5 12.5459L36.5 12.5459V11.0459V9.5459L1.5 9.5459L1.5 11.0459Z" fill="white"/>
</svg>
