<svg width="38" height="23" viewBox="0 0 38 23" fill="none" xmlns="http://www.w3.org/2000/svg">
<path d="M1.5 9.5459C0.671573 9.5459 0 10.2175 0 11.0459C0 11.8743 0.671573 12.5459 1.5 12.5459L1.5 11.0459L1.5 9.5459ZM37.5607 12.1066C38.1464 11.5208 38.1464 10.571 37.5607 9.98524L28.0147 0.439297C27.4289 -0.14649 26.4792 -0.14649 25.8934 0.439297C25.3076 1.02508 25.3076 1.97483 25.8934 2.56062L34.3787 11.0459L25.8934 19.5312C25.3076 20.117 25.3076 21.0667 25.8934 21.6525C26.4792 22.2383 27.4289 22.2383 28.0147 21.6525L37.5607 12.1066ZM1.5 11.0459L1.5 12.5459L36.5 12.5459V11.0459V9.5459L1.5 9.5459L1.5 11.0459Z" fill="white"/>
</svg>
