<svg width="36" height="26" viewBox="0 0 36 26" fill="none" xmlns="http://www.w3.org/2000/svg">
<path d="M33.4066 10.5881C34.4608 11.332 34.988 11.704 34.988 12.2222C34.988 12.7405 34.4608 13.1124 33.4066 13.8563L23.8753 20.582C22.4931 21.5574 21.802 22.0451 21.2621 21.7653C20.7222 21.4855 20.7222 20.6396 20.7222 18.9479V5.49655C20.7222 3.80481 20.7222 2.95895 21.2621 2.67916C21.802 2.39937 22.4931 2.88706 23.8753 3.86243L33.4066 10.5881Z" fill="white"/>
<path d="M1 24.9999C1 14.5423 15.0399 6.40863 26.8334 8.73252" stroke="white" stroke-width="2" stroke-linecap="round"/>
<path d="M1.27783 25C4.61121 19.2707 16.8325 14.4444 26.8326 16.1111" stroke="white" stroke-width="2" stroke-linecap="round"/>
<path d="M2.11133 21.6666V22.9166L15.554 15.8453L21.278 15.2656V9.4685L19.5608 8.88879L13.2644 10.6279L9.25761 12.9468L4.67843 16.425L2.11133 21.6666Z" fill="white"/>
</svg>
